<svg width="99" height="32" viewBox="0 0 99 32" fill="none" xmlns="http://www.w3.org/2000/svg">
<path d="M7.50455 3.95906C7.50455 4.91045 7.21281 5.67241 6.63806 6.24067C5.97726 6.91433 5.1166 7.2533 4.06193 7.2533C3.05394 7.2533 2.19328 6.90864 1.48726 6.22928C0.779767 5.53995 0.426756 4.69396 0.426756 3.68134C0.426756 2.66871 0.779767 1.82272 1.48726 1.13909C2.19328 0.454039 3.05394 0.109375 4.06193 0.109375C4.56374 0.109375 5.0422 0.210495 5.49879 0.398493C5.95391 0.587915 6.32443 0.844276 6.59284 1.16045L5.98309 1.76148C5.51483 1.2217 4.87737 0.955367 4.06193 0.955367C3.32673 0.955367 2.68926 1.20603 2.14807 1.71163C1.61271 2.21866 1.3443 2.87523 1.3443 3.68134C1.3443 4.48745 1.61271 5.14971 2.14807 5.65674C2.68926 6.15664 3.32673 6.413 4.06193 6.413C4.84236 6.413 5.49879 6.15664 6.01664 5.65104C6.35799 5.31635 6.552 4.8549 6.60306 4.26527H4.06193V3.44207H7.45204C7.49288 3.6201 7.50455 3.79243 7.50455 3.95906Z" fill="white"/>
<path d="M12.8829 1.1049H9.69848V3.26973H12.5693V4.09293H9.69848V6.25776H12.8829V7.09663H8.79698V0.266033H12.8829V1.1049Z" fill="white"/>
<path d="M16.6785 7.09663H15.777V1.1049H13.8238V0.266033H18.6332V1.1049H16.6785V7.09663Z" fill="white"/>
<path d="M22.1138 7.09663V0.266033H23.0138V7.09663H22.1138Z" fill="white"/>
<path d="M27.0035 7.09663H26.1093V1.1049H24.1487V0.266033H28.964V1.1049H27.0035V7.09663Z" fill="white"/>
<path d="M38.0695 6.21789C37.3795 6.90864 36.5247 7.2533 35.505 7.2533C34.4795 7.2533 33.6247 6.90864 32.9347 6.21789C32.2462 5.52856 31.9034 4.68257 31.9034 3.68134C31.9034 2.68011 32.2462 1.83411 32.9347 1.14479C33.6247 0.454038 34.4795 0.109375 35.505 0.109375C36.5189 0.109375 37.3737 0.454038 38.0637 1.15049C38.758 1.84551 39.1008 2.6858 39.1008 3.68134C39.1008 4.68257 38.758 5.52856 38.0695 6.21789ZM33.6014 5.64535C34.1207 6.15664 34.7523 6.413 35.505 6.413C36.2519 6.413 36.8894 6.15664 37.4029 5.64535C37.9207 5.13405 38.1833 4.47748 38.1833 3.68134C38.1833 2.88519 37.9207 2.22863 37.4029 1.71733C36.8894 1.20603 36.2519 0.949669 35.505 0.949669C34.7523 0.949669 34.1207 1.20603 33.6014 1.71733C33.0835 2.22863 32.821 2.88519 32.821 3.68134C32.821 4.47748 33.0835 5.13405 33.6014 5.64535Z" fill="white"/>
<path d="M40.3655 7.09663V0.266033H41.4596L44.8614 5.5784H44.9008L44.8614 4.26526V0.266033H45.7614V7.09663H44.822L41.2597 1.5222H41.2204L41.2597 2.84104V7.09663H40.3655Z" fill="white"/>
<path d="M31.6821 17.0724C28.9411 17.0724 26.702 19.109 26.702 21.919C26.702 24.7062 28.9411 26.7642 31.6821 26.7642C34.4289 26.7642 36.6681 24.7062 36.6681 21.919C36.6681 19.109 34.4289 17.0724 31.6821 17.0724ZM31.6821 24.8558C30.1781 24.8558 28.8842 23.6437 28.8842 21.919C28.8842 20.1715 30.1781 18.9808 31.6821 18.9808C33.1861 18.9808 34.4858 20.1715 34.4858 21.919C34.4858 23.6437 33.1861 24.8558 31.6821 24.8558ZM20.816 17.0724C18.0692 17.0724 15.8358 19.109 15.8358 21.919C15.8358 24.7062 18.0692 26.7642 20.816 26.7642C23.5613 26.7642 25.7961 24.7062 25.7961 21.919C25.7961 19.109 23.5613 17.0724 20.816 17.0724ZM20.816 24.8558C19.3105 24.8558 18.0123 23.6437 18.0123 21.919C18.0123 20.1715 19.3105 18.9808 20.816 18.9808C22.3199 18.9808 23.6138 20.1715 23.6138 21.919C23.6138 23.6437 22.3199 24.8558 20.816 24.8558ZM7.88571 18.5578V20.6173H12.9227C12.7754 21.768 12.3815 22.614 11.7776 23.2037C11.0424 23.9158 9.89731 24.7062 7.88571 24.7062C4.78589 24.7062 2.35855 22.2637 2.35855 19.2372C2.35855 16.2107 4.78589 13.7681 7.88571 13.7681C9.5618 13.7681 10.7813 14.4076 11.6813 15.2365L13.1678 13.7852C11.9089 12.6117 10.2343 11.7101 7.88571 11.7101C3.63495 11.7101 0.0625 15.087 0.0625 19.2372C0.0625 23.3874 3.63495 26.7642 7.88571 26.7642C10.1832 26.7642 11.9089 26.0293 13.2655 24.6507C14.6557 23.2934 15.089 21.3849 15.089 19.8439C15.089 19.3654 15.0481 18.9253 14.9752 18.5578H7.88571ZM60.7591 20.1544C60.3492 19.0705 59.0845 17.0724 56.5084 17.0724C53.9556 17.0724 51.8302 19.0364 51.8302 21.919C51.8302 24.6336 53.9337 26.7642 56.7534 26.7642C59.0334 26.7642 60.3492 25.4069 60.8904 24.6165L59.1983 23.5156C58.6337 24.3217 57.865 24.8558 56.7534 24.8558C55.6492 24.8558 54.8571 24.3615 54.3494 23.3874L60.9881 20.7056L60.7591 20.1544ZM53.9906 21.768C53.9337 19.8994 55.477 18.9424 56.5828 18.9424C57.4492 18.9424 58.1845 19.3654 58.4295 19.9707L53.9906 21.768ZM48.5947 26.4694H50.777V12.2271H48.5947V26.4694ZM45.0208 18.1519H44.9479C44.4577 17.5851 43.5227 17.0724 42.3382 17.0724C39.8525 17.0724 37.5798 19.203 37.5798 21.9347C37.5798 24.6507 39.8525 26.7642 42.3382 26.7642C43.5227 26.7642 44.4577 26.2472 44.9479 25.6633H45.0208V26.3583C45.0208 28.2112 44.007 29.2068 42.3717 29.2068C41.0384 29.2068 40.2113 28.2668 39.87 27.4763L37.9722 28.2497C38.5192 29.5343 39.9677 31.1152 42.3717 31.1152C44.9304 31.1152 47.0893 29.6454 47.0893 26.0692V17.3672H45.0208V18.1519ZM42.5249 24.8558C41.0209 24.8558 39.762 23.6266 39.762 21.9347C39.762 20.227 41.0209 18.9808 42.5249 18.9808C44.007 18.9808 45.1754 20.227 45.1754 21.9347C45.1754 23.6266 44.007 24.8558 42.5249 24.8558ZM70.9761 12.2271H65.7567V26.4694H67.9332V21.073H70.9761C73.3932 21.073 75.7637 19.3654 75.7637 16.6494C75.7637 13.9348 73.3874 12.2271 70.9761 12.2271ZM71.033 19.0919H67.9332V14.2082H71.033C72.658 14.2082 73.5858 15.5256 73.5858 16.6494C73.5858 17.7517 72.658 19.0919 71.033 19.0919ZM84.487 17.0453C82.9144 17.0453 81.2792 17.7232 80.6067 19.2258L82.5381 20.0162C82.9538 19.2258 83.7182 18.9694 84.5263 18.9694C85.6554 18.9694 86.8005 19.6317 86.818 20.801V20.9505C86.4241 20.7283 85.581 20.3993 84.5438 20.3993C82.4637 20.3993 80.3441 21.5174 80.3441 23.6039C80.3441 25.5123 82.0479 26.7414 83.9633 26.7414C85.4278 26.7414 86.236 26.0963 86.7436 25.3457H86.818V26.4466H88.9201V20.9833C88.9201 18.4581 86.9887 17.0453 84.487 17.0453ZM84.2244 24.8501C83.5125 24.8501 82.5206 24.5054 82.5206 23.6437C82.5206 22.5414 83.7576 22.1184 84.8283 22.1184C85.7867 22.1184 86.236 22.3249 86.818 22.5969C86.6473 23.9158 85.4847 24.8501 84.2244 24.8501ZM96.5784 17.3572L94.0767 23.5312H94.0023L91.4159 17.3572H89.0688L92.9549 25.9852L90.7376 30.7862H93.0118L98.9999 17.3572H96.5784ZM76.9599 26.4694H79.1421V12.2271H76.9599V26.4694Z" fill="white"/>
</svg>
